<?xml version="1.0" standalone="no"?>
<!DOCTYPE svg PUBLIC "-//W3C//DTD SVG 20010904//EN"
 "http://www.w3.org/TR/2001/REC-SVG-20010904/DTD/svg10.dtd">
<svg version="1.0" xmlns="http://www.w3.org/2000/svg"
 width="100.000000pt" height="100.000000pt" viewBox="0 0 100.000000 100.000000"
 preserveAspectRatio="xMidYMid meet">
<metadata>
Created by potrace 1.11, written by Peter Selinger 2001-2013
</metadata>
<g transform="translate(0.000000,100.000000) scale(0.100000,-0.100000)"
fill="#000000" stroke="none">
<path d="M219 949 c-33 -33 -8 -89 40 -89 40 0 74 -36 66 -69 -12 -50 -25 -54
-155 -56 -116 -2 -123 -3 -147 -28 -48 -47 -10 -127 60 -127 38 0 80 -43 72
-73 -10 -32 -43 -57 -77 -57 -44 0 -81 -45 -74 -89 9 -54 40 -77 109 -80 17
-1 18 -7 14 -48 -3 -27 -6 -50 -6 -52 -1 -2 -8 0 -17 3 -43 16 -99 -38 -87
-84 16 -59 94 -67 128 -13 24 38 52 42 65 9 19 -50 25 -51 359 -50 286 1 312
2 331 19 25 23 26 67 2 88 -14 13 -37 17 -88 17 -57 0 -74 4 -93 21 -15 14
-20 27 -15 42 12 42 25 47 143 48 100 2 115 4 132 22 40 44 12 95 -58 104 -44
5 -72 28 -78 64 -6 35 16 57 76 77 61 19 86 52 75 96 -6 25 -62 70 -76 61 -3
-2 -4 11 -2 30 3 28 -3 41 -38 79 -36 39 -39 46 -22 46 42 0 61 56 31 89 -19
20 -27 21 -334 21 -304 0 -316 -1 -336 -21z"/>
</g>
</svg>
